<svg width="38" height="34" viewBox="0 0 38 34" fill="none" xmlns="http://www.w3.org/2000/svg">
<path d="M35 28C35.7704 28.0004 36.5112 28.2972 37.0688 28.8288C37.6264 29.3605 37.958 30.0863 37.995 30.8558C38.0321 31.6254 37.7716 32.3797 37.2677 32.9624C36.7637 33.5451 36.0548 33.9117 35.288 33.986L35 34H3C2.22957 33.9996 1.48881 33.7028 0.931227 33.1712C0.373643 32.6395 0.041976 31.9137 0.00495148 31.1442C-0.032073 30.3746 0.228384 29.6203 0.732351 29.0376C1.23632 28.4549 1.94516 28.0883 2.712 28.014L3 28H35ZM35 14C35.7956 14 36.5587 14.3161 37.1213 14.8787C37.6839 15.4413 38 16.2044 38 17C38 17.7956 37.6839 18.5587 37.1213 19.1213C36.5587 19.6839 35.7956 20 35 20H3C2.20435 20 1.44129 19.6839 0.87868 19.1213C0.316071 18.5587 0 17.7956 0 17C0 16.2044 0.316071 15.4413 0.87868 14.8787C1.44129 14.3161 2.20435 14 3 14H35ZM35 0C35.7956 0 36.5587 0.316071 37.1213 0.87868C37.6839 1.44129 38 2.20435 38 3C38 3.79565 37.6839 4.55871 37.1213 5.12132C36.5587 5.68393 35.7956 6 35 6H3C2.20435 6 1.44129 5.68393 0.87868 5.12132C0.316071 4.55871 0 3.79565 0 3C0 2.20435 0.316071 1.44129 0.87868 0.87868C1.44129 0.316071 2.20435 0 3 0H35Z" fill="black"/>
</svg>
